<svg width="53" height="65" viewBox="0 0 53 65" fill="none" xmlns="http://www.w3.org/2000/svg">
<path style="mix-blend-mode:multiply" opacity="0.8" d="M33.2805 70C51.6608 70 66.561 55.0998 66.561 36.7195C66.561 18.3392 51.6608 3.43896 33.2805 3.43896C14.9002 3.43896 0 18.3392 0 36.7195C0 55.0998 14.9002 70 33.2805 70Z" fill="url(#paint0_radial_19_21)"/>
<path d="M24.3265 46.3391C37.1227 46.3391 47.496 35.9658 47.496 23.1696C47.496 10.3734 37.1227 0 24.3265 0C11.5303 0 1.15689 10.3734 1.15689 23.1696C1.15689 35.9658 11.5303 46.3391 24.3265 46.3391Z" fill="url(#paint1_linear_19_21)"/>
<path d="M31.5214 14.4057C31.208 14.4057 30.9016 14.4986 30.6409 14.6728C30.3803 14.8469 30.1772 15.0944 30.0573 15.384C29.9373 15.6736 29.9059 15.9922 29.9671 16.2997C30.0282 16.6071 30.1792 16.8895 30.4008 17.1111C30.6224 17.3327 30.9048 17.4837 31.2122 17.5448C31.5196 17.606 31.8383 17.5746 32.1279 17.4546C32.4175 17.3347 32.665 17.1316 32.8391 16.8709C33.0132 16.6103 33.1062 16.3039 33.1062 15.9905C33.1062 15.5702 32.9392 15.1671 32.642 14.8699C32.3448 14.5727 31.9417 14.4057 31.5214 14.4057Z" fill="white"/>
<path d="M24.4374 16.4501C23.1147 16.4501 21.8217 16.8423 20.7219 17.5772C19.6221 18.312 18.7649 19.3565 18.2587 20.5786C17.7525 21.8006 17.6201 23.1453 17.8781 24.4426C18.1362 25.7399 18.7731 26.9316 19.7084 27.8669C20.6437 28.8022 21.8354 29.4391 23.1327 29.6972C24.43 29.9552 25.7747 29.8228 26.9967 29.3166C28.2187 28.8104 29.2632 27.9532 29.9981 26.8534C30.733 25.7536 31.1252 24.4606 31.1252 23.1379C31.1252 21.3642 30.4206 19.6631 29.1664 18.4089C27.9122 17.1547 26.2111 16.4501 24.4374 16.4501ZM24.4374 27.4326C23.5873 27.4358 22.7554 27.1866 22.0471 26.7166C21.3387 26.2466 20.7858 25.5769 20.4583 24.7924C20.1308 24.0079 20.0435 23.1439 20.2074 22.3098C20.3713 21.4756 20.7791 20.7089 21.3791 20.1067C21.9791 19.5044 22.7443 19.0938 23.5778 18.9268C24.4114 18.7598 25.2757 18.8439 26.0614 19.1685C26.8471 19.4931 27.5188 20.0436 27.9914 20.7502C28.464 21.4568 28.7163 22.2878 28.7163 23.1379C28.7122 24.2729 28.2605 25.3605 27.4594 26.1646C26.6583 26.9686 25.5724 27.4243 24.4374 27.4326Z" fill="white"/>
<path d="M29.7464 36.7195H18.8907C17.8175 36.7174 16.7553 36.5037 15.7649 36.0907C14.7744 35.6776 13.8751 35.0732 13.1185 34.3122C12.3619 33.5512 11.7628 32.6484 11.3555 31.6556C10.9482 30.6627 10.7407 29.5993 10.7449 28.5262V17.7179C10.7386 16.6435 10.9446 15.5783 11.3509 14.5837C11.7573 13.589 12.3561 12.6843 13.1129 11.9216C13.8697 11.1589 14.7697 10.5531 15.7612 10.1391C16.7527 9.72501 17.8162 9.5108 18.8907 9.50873H29.7464C31.9098 9.51292 33.9833 10.3741 35.513 11.9038C37.0427 13.4335 37.9039 15.5071 37.9081 17.6704V28.5262C37.9102 29.6 37.7007 30.6638 37.2917 31.6568C36.8826 32.6497 36.282 33.5523 35.5242 34.3132C34.7663 35.074 33.866 35.6781 32.8746 36.091C31.8833 36.5038 30.8203 36.7174 29.7464 36.7195ZM18.8907 12.1078C17.4055 12.112 15.9826 12.7049 14.9339 13.7565C13.8852 14.8082 13.2964 16.2328 13.2964 17.7179V28.5262C13.2964 30.0113 13.8852 31.4359 14.9339 32.4875C15.9826 33.5392 17.4055 34.1321 18.8907 34.1363H29.7464C31.2331 34.1321 32.6576 33.5397 33.7088 32.4885C34.76 31.4373 35.3524 30.0128 35.3566 28.5262V17.7179C35.3524 16.2313 34.76 14.8068 33.7088 13.7556C32.6576 12.7044 31.2331 12.112 29.7464 12.1078H18.8907Z" fill="white"/>
<defs>
<radialGradient id="paint0_radial_19_21" cx="0" cy="0" r="1" gradientUnits="userSpaceOnUse" gradientTransform="translate(33.2805 36.7195) scale(33.2805)">
<stop stop-color="#000056"/>
<stop offset="0.39" stop-color="#7373A2" stop-opacity="0.55"/>
<stop offset="0.78" stop-color="#D9D9E6" stop-opacity="0.15"/>
<stop offset="1" stop-color="white" stop-opacity="0"/>
</radialGradient>
<linearGradient id="paint1_linear_19_21" x1="40.7132" y1="6.78289" x2="7.93978" y2="39.5563" gradientUnits="userSpaceOnUse">
<stop stop-color="#FBE18A"/>
<stop offset="0.21" stop-color="#FCBB45"/>
<stop offset="0.38" stop-color="#F75274"/>
<stop offset="0.52" stop-color="#D53692"/>
<stop offset="0.74" stop-color="#8F39CE"/>
<stop offset="1" stop-color="#5B4FE9"/>
</linearGradient>
</defs>
</svg>
