<svg width="67" height="70" viewBox="0 0 67 70" fill="none" xmlns="http://www.w3.org/2000/svg">
<path style="mix-blend-mode:multiply" opacity="0.8" d="M33.3703 70C51.8002 70 66.7406 55.0596 66.7406 36.6297C66.7406 18.1998 51.8002 3.2594 33.3703 3.2594C14.9404 3.2594 0 18.1998 0 36.6297C0 55.0596 14.9404 70 33.3703 70Z" fill="url(#paint0_radial_19_13)"/>
<path d="M25.2373 45.3836C37.7696 45.3836 47.9291 35.2241 47.9291 22.6918C47.9291 10.1595 37.7696 0 25.2373 0C12.7049 0 2.54545 10.1595 2.54545 22.6918C2.54545 35.2241 12.7049 45.3836 25.2373 45.3836Z" fill="url(#paint1_linear_19_13)"/>
<path d="M15.7228 18.4701H20.1774V32.5942H15.7228V18.4701ZM17.9113 11.4546C18.4161 11.4546 18.9094 11.6047 19.3287 11.8858C19.7479 12.1669 20.0741 12.5663 20.2658 13.0332C20.4575 13.5001 20.5061 14.0135 20.4053 14.5081C20.3046 15.0027 20.0591 15.4562 19.7 15.8109C19.3409 16.1656 18.8844 16.4056 18.3886 16.5003C17.8928 16.595 17.3801 16.5401 16.9155 16.3427C16.451 16.1452 16.0556 15.8142 15.7797 15.3915C15.5037 14.9688 15.3597 14.4737 15.3659 13.969C15.3638 13.6341 15.4282 13.3022 15.5554 12.9924C15.6826 12.6827 15.87 12.4012 16.1068 12.1645C16.3436 11.9277 16.625 11.7403 16.9348 11.6131C17.2445 11.4859 17.5765 11.4214 17.9113 11.4235" fill="white"/>
<path d="M22.8625 18.4701H27.0843V20.3947C27.5095 19.6765 28.1199 19.0858 28.8517 18.6844C29.5835 18.283 30.4097 18.0857 31.2439 18.1131C35.6829 18.1131 36.5055 21.0466 36.5055 24.8493V32.6098H32.1752V25.7184C32.1752 24.0887 32.1752 21.9779 29.8936 21.9779C27.612 21.9779 27.255 23.7628 27.255 25.6098V32.5943H22.8625V18.4701Z" fill="white"/>
<defs>
<radialGradient id="paint0_radial_19_13" cx="0" cy="0" r="1" gradientUnits="userSpaceOnUse" gradientTransform="translate(33.3703 36.6297) scale(33.3703)">
<stop stop-color="#000056"/>
<stop offset="0.39" stop-color="#7373A2" stop-opacity="0.55"/>
<stop offset="0.78" stop-color="#D9D9E6" stop-opacity="0.15"/>
<stop offset="1" stop-color="white" stop-opacity="0"/>
</radialGradient>
<linearGradient id="paint1_linear_19_13" x1="41.286" y1="6.64302" x2="9.18847" y2="38.7406" gradientUnits="userSpaceOnUse">
<stop stop-color="#007AB5"/>
<stop offset="1" stop-color="#0046E5"/>
</linearGradient>
</defs>
</svg>
