<svg width="67" height="70" viewBox="0 0 67 70" fill="none" xmlns="http://www.w3.org/2000/svg">
<path style="mix-blend-mode:multiply" opacity="0.8" d="M33.2805 70C51.6608 70 66.561 55.0998 66.561 36.7195C66.561 18.3392 51.6608 3.43896 33.2805 3.43896C14.9002 3.43896 0 18.3392 0 36.7195C0 55.0998 14.9002 70 33.2805 70Z" fill="url(#paint0_radial_19_30)"/>
<path d="M23.6926 46.3391C36.4888 46.3391 46.8621 35.9658 46.8621 23.1696C46.8621 10.3734 36.4888 0 23.6926 0C10.8964 0 0.52298 10.3734 0.52298 23.1696C0.52298 35.9658 10.8964 46.3391 23.6926 46.3391Z" fill="url(#paint1_linear_19_30)"/>
<path d="M36.4501 15.2298C35.6342 15.5806 34.7767 15.8256 33.8986 15.9588C34.2948 15.9588 34.9128 15.1505 35.1506 14.8494C35.5286 14.3792 35.8136 13.8414 35.9905 13.2646C35.9905 13.2646 35.9905 13.1695 35.9905 13.1378C35.9695 13.1235 35.9446 13.1159 35.9192 13.1159C35.8937 13.1159 35.8689 13.1235 35.8479 13.1378C34.8881 13.6417 33.8721 14.03 32.8209 14.2947C32.7896 14.3128 32.7541 14.3223 32.7179 14.3223C32.6818 14.3223 32.6462 14.3128 32.6149 14.2947L32.3455 14.0253C31.9113 13.6476 31.419 13.3426 30.8875 13.122C30.1744 12.8334 29.4041 12.7141 28.6371 12.7733C27.8896 12.8218 27.1607 13.027 26.4976 13.3756C25.8323 13.717 25.2443 14.1917 24.7702 14.7702C24.2819 15.3744 23.9305 16.0773 23.7401 16.8304C23.6079 17.5545 23.6187 18.2975 23.7718 19.0174C23.7718 19.1283 23.7718 19.1442 23.6609 19.1283C19.64 18.7209 15.9158 16.8277 13.2171 13.8193C13.1062 13.6767 13.0269 13.6767 12.9319 13.8193C12.3911 14.8161 12.1869 15.961 12.3497 17.0834C12.5125 18.2057 13.0335 19.2454 13.8352 20.0475C14.0412 20.2377 14.2472 20.4437 14.4691 20.618C13.7672 20.562 13.0833 20.3681 12.4564 20.0475C12.3455 19.9683 12.2821 20.0475 12.2662 20.1585C12.2504 20.2694 12.2662 20.5388 12.2662 20.7607C12.3926 21.6963 12.7641 22.5819 13.343 23.3278C13.9219 24.0737 14.6876 24.6533 15.5626 25.0079C15.7737 25.1074 15.9978 25.1768 16.2282 25.2139C15.5869 25.378 14.9214 25.4263 14.2631 25.3565C14.1204 25.3565 14.0571 25.3565 14.1204 25.5309C14.4559 26.4146 15.0122 27.1977 15.7363 27.8053C16.4604 28.4129 17.3282 28.8247 18.2567 29.0016C18.4469 29.0016 18.6371 29.0016 18.8273 29.0016C18.3677 29.7147 16.7512 30.2377 16.0063 30.5863C14.6302 31.0729 13.1653 31.2567 11.7116 31.1252C11.4739 31.1252 11.4263 31.1252 11.3629 31.1252C11.2995 31.1252 11.3629 31.2203 11.3629 31.2836C11.3629 31.347 11.9493 31.6481 12.2504 31.8225C13.163 32.3042 14.1247 32.6868 15.1189 32.9635C17.7043 33.7576 20.4541 33.8517 23.0878 33.2365C25.7215 32.6212 28.1449 31.3185 30.1109 29.4611C31.5173 27.9359 32.6048 26.1451 33.3096 24.1938C34.0145 22.2425 34.3225 20.1701 34.2155 18.0982C34.2155 17.9398 34.4057 17.8447 34.5166 17.7496C35.2599 17.1506 35.9114 16.4457 36.4501 15.6577C36.5357 15.5436 36.5804 15.404 36.5769 15.2615C36.5769 15.2615 36.5927 15.1822 36.4501 15.2298Z" fill="white"/>
<defs>
<radialGradient id="paint0_radial_19_30" cx="0" cy="0" r="1" gradientUnits="userSpaceOnUse" gradientTransform="translate(33.2805 36.7195) scale(33.2805)">
<stop stop-color="#000056"/>
<stop offset="0.39" stop-color="#7373A2" stop-opacity="0.55"/>
<stop offset="0.78" stop-color="#D9D9E6" stop-opacity="0.15"/>
<stop offset="1" stop-color="white" stop-opacity="0"/>
</radialGradient>
<linearGradient id="paint1_linear_19_30" x1="40.0792" y1="6.78289" x2="7.30587" y2="39.5563" gradientUnits="userSpaceOnUse">
<stop stop-color="#33CCFF"/>
<stop offset="1" stop-color="#337FFF"/>
</linearGradient>
</defs>
</svg>
